HIERARCHY
ROOT Hips
{
    OFFSET 0.000000 0.000000 0.000000
    CHANNELS 6 Xposition Yposition Zposition Zrotation Xrotation Yrotation
    JOINT Spine
    {
        OFFSET -0.000000 14.517291 0.000000
        CHANNELS 3 Zrotation Xrotation Yrotation
        JOINT Spine1
        {
            OFFSET -0.000000 37.558300 0.000000
            CHANNELS 3 Zrotation Xrotation Yrotation
            JOINT Neck
            {
                OFFSET -0.000000 37.404057 3.400369
                CHANNELS 3 Zrotation Xrotation Yrotation
                JOINT Head
                {
                    OFFSET -0.000000 24.785618 -3.540803
                    CHANNELS 3 Zrotation Xrotation Yrotation
                    End Site
                    {
                        OFFSET -0.000000 35.408028 0.000000
                    }
                }
            }
            JOINT LeftShoulder
            {
                OFFSET 6.992933 33.973492 -0.192664
                CHANNELS 3 Zrotation Xrotation Yrotation
                JOINT LeftArm
                {
                    OFFSET 21.527611 0.000000 0.000000
                    CHANNELS 3 Zrotation Xrotation Yrotation
                    JOINT LeftForeArm
                    {
                        OFFSET 56.353916 0.000000 0.000000
                        CHANNELS 3 Zrotation Xrotation Yrotation
                        JOINT LeftHand
                        {
                            OFFSET 47.774071 0.000000 0.000000
                            CHANNELS 3 Zrotation Xrotation Yrotation
                            End Site
                            {
                                OFFSET 26.556021 0.000000 0.000000
                            }
                        }
                    }
                }
            }
            JOINT RightShoulder
            {
                OFFSET -7.065357 33.973492 -0.192664
                CHANNELS 3 Zrotation Xrotation Yrotation
                JOINT RightArm
                {
                    OFFSET -21.527611 0.000000 0.000000
                    CHANNELS 3 Zrotation Xrotation Yrotation
                    JOINT RightForeArm
                    {
                        OFFSET -56.353916 0.000000 0.000000
                        CHANNELS 3 Zrotation Xrotation Yrotation
                        JOINT RightHand
                        {
                            OFFSET -47.774071 0.000000 0.000000
                            CHANNELS 3 Zrotation Xrotation Yrotation
                            End Site
                            {
                                OFFSET -26.556021 0.000000 0.000000
                            }
                        }
                    }
                }
            }
        }
    }
    JOINT LeftUpLeg
    {
        OFFSET 17.704014 0.000000 0.000000
        CHANNELS 3 Zrotation Xrotation Yrotation
        JOINT LeftLeg
        {
            OFFSET -0.000000 -81.181816 0.000000
            CHANNELS 3 Zrotation Xrotation Yrotation
            JOINT LeftFoot
            {
                OFFSET -0.000000 -62.821102 0.000000
                CHANNELS 3 Zrotation Xrotation Yrotation
                JOINT LeftToeBase
                {
                    OFFSET -0.000000 -11.507608 26.556021
                    CHANNELS 3 Zrotation Xrotation Yrotation
                    End Site
                    {
                        OFFSET -0.000000 0.000000 7.081605
                    }
                }
            }
        }
    }
    JOINT RightUpLeg
    {
        OFFSET -17.704014 0.000000 0.000000
        CHANNELS 3 Zrotation Xrotation Yrotation
        JOINT RightLeg
        {
            OFFSET -0.000000 -81.181816 0.000000
            CHANNELS 3 Zrotation Xrotation Yrotation
            JOINT RightFoot
            {
                OFFSET -0.000000 -62.821102 0.000000
                CHANNELS 3 Zrotation Xrotation Yrotation
                JOINT RightToeBase
                {
                    OFFSET -0.000000 -11.507608 26.556021
                    CHANNELS 3 Zrotation Xrotation Yrotation
                    End Site
                    {
                        OFFSET -0.000000 0.000000 7.081605
                    }
                }
            }
        }
    }
}
MOTION
Frames:    9
Frame Time:    0.008333
32.075016    158.724365    -104.237320    -0.026481    -1.585639    27.398706    -1.995491    -3.676849    -1.536549    -7.689738    2.625341    -0.314062    11.339254    4.667981    -4.535996    6.693305    -5.478983    -4.670696    7.979182    5.413435    -16.767345    -24.501223    10.072228    -47.062115    -26.930641    -10.968719    -65.328804    -17.399460    -23.981340    -26.023977    -6.659147    5.265972    -7.746045    20.094669    25.723740    9.892677    15.908412    12.983803    4.448740    2.923482    12.989376    24.232162    9.365034    -0.198353    -0.647950    -11.219723    25.547153    -17.227037    7.183932    -22.760885    43.963406    0.000000    0.000000    0.000000    -14.995542    -26.466667    -8.699472    11.612256    27.925739    -14.040393    2.138714    12.307302    -13.855147    0.000000    0.000000    0.000000    
32.063519    158.732391    -104.245773    -0.028955    -1.576218    27.381966    -2.012976    -3.670632    -1.553434    -7.691595    2.595204    -0.321586    11.382957    4.639317    -4.495829    6.637407    -5.416947    -4.650588    8.068054    5.150775    -16.810371    -24.672205    9.421551    -47.644375    -26.254606    -11.977649    -66.791740    -18.052784    -24.797966    -26.063387    -6.641269    5.269112    -7.722371    20.022657    25.623865    9.987916    15.998658    13.026392    4.396478    2.836371    13.018084    24.259062    9.361871    -0.215924    -0.648146    -11.357070    25.551802    -16.904167    7.244557    -22.716576    43.909016    0.000000    0.000000    0.000000    -14.989253    -26.473747    -8.695242    11.603836    27.901703    -14.047359    2.146625    12.330945    -13.839371    0.000000    0.000000    0.000000    
32.053108    158.737701    -104.254822    -0.028130    -1.555789    27.353529    -2.042314    -3.670917    -1.573404    -7.680317    2.555201    -0.330926    11.417044    4.626568    -4.456213    6.584033    -5.358104    -4.627699    8.115788    4.907706    -16.849178    -24.743687    8.859830    -48.235489    -25.632807    -13.117921    -68.305519    -18.350815    -25.849503    -26.077219    -6.629711    5.268085    -7.690854    19.973158    25.625717    10.059853    15.977980    13.060062    4.402065    2.776241    13.041289    24.344244    9.348616    -0.213537    -0.647974    -11.214828    25.516937    -17.221767    7.167850    -22.732800    43.990337    0.000000    0.000000    0.000000    -14.990916    -26.491442    -8.685097    11.610899    27.874117    -14.065599    2.134757    12.345688    -13.818615    0.000000    0.000000    0.000000    
32.046288    158.747864    -104.257729    -0.031488    -1.542987    27.326365    -2.121070    -3.706312    -1.576569    -7.566997    2.578353    -0.331945    11.423734    4.608292    -4.421364    6.510637    -5.322567    -4.609800    8.125995    4.655657    -16.949480    -24.882395    8.188683    -48.803940    -24.963135    -14.220135    -69.698860    -18.807278    -26.740107    -26.127234    -6.646012    5.264157    -7.677856    19.857279    25.512327    10.161703    16.121109    13.125932    4.354333    2.651235    13.082800    24.377796    9.340758    -0.224290    -0.663527    -11.347533    25.514189    -16.900959    7.231660    -22.698507    43.946709    0.000000    0.000000    0.000000    -14.980934    -26.499710    -8.677005    11.600636    27.843229    -14.103114    2.124017    12.371058    -13.760083    0.000000    0.000000    0.000000    
32.040306    158.756943    -104.258492    -0.033436    -1.531957    27.290157    -2.141959    -3.705657    -1.607040    -7.545540    2.549331    -0.344245    11.431374    4.571732    -4.372580    6.468822    -5.238453    -4.576058    8.155817    4.424193    -16.964737    -24.985451    7.548365    -49.405018    -24.402597    -15.376204    -71.101715    -19.149651    -27.759935    -26.203028    -6.648143    5.273168    -7.642632    19.861696    25.613071    10.201929    15.933731    13.065142    4.461205    2.776239    13.040395    24.360525    9.331677    -0.213228    -0.667853    -11.346314    25.471090    -16.857492    7.216705    -22.681475    43.938648    0.000000    0.000000    0.000000    -14.968707    -26.510391    -8.685069    11.576546    27.826483    -14.051661    2.124329    12.386411    -13.747991    0.000000    0.000000    0.000000    
32.033714    158.765945    -104.261162    -0.034400    -1.513872    27.251753    -2.161916    -3.701069    -1.641416    -7.534145    2.505518    -0.358622    11.450515    4.536812    -4.327264    6.419960    -5.147698    -4.548637    8.186562    4.193226    -16.974258    -25.179605    6.564712    -49.977913    -24.221485    -16.077150    -72.267784    -19.353230    -28.538771    -26.466309    -6.638060    5.279821    -7.605847    19.811852    25.626240    10.281469    15.898976    13.040883    4.504910    2.803770    13.016415    24.323677    9.313958    -0.197635    -0.673573    -11.199490    25.419743    -17.169655    7.103917    -22.715063    44.032948    0.000000    0.000000    0.000000    -14.967010    -26.522150    -8.655444    11.598673    27.787502    -14.073826    2.116545    12.402205    -13.736073    0.000000    0.000000    0.000000    
32.027588    158.775497    -104.261185    -0.036086    -1.499821    27.205860    -2.173551    -3.678684    -1.682281    -7.527376    2.418767    -0.378165    11.462706    4.556699    -4.278760    6.382710    -5.093682    -4.507259    8.197046    4.020580    -16.989788    -25.260651    5.941276    -50.597141    -23.525797    -17.332556    -73.530922    -19.767126    -29.479513    -26.507111    -6.629266    5.309963    -7.527599    19.791637    25.586180    10.338671    15.869857    13.042555    4.520142    2.817029    13.019570    24.309227    9.302681    -0.187799    -0.669388    -11.197353    25.390045    -17.154493    7.097556    -22.701569    44.049778    0.000000    0.000000    0.000000    -14.953597    -26.540197    -8.640993    11.584351    27.771799    -14.029016    2.135084    12.417559    -13.736508    0.000000    0.000000    0.000000    
32.021286    158.785461    -104.262329    -0.040894    -1.480966    27.158264    -2.185966    -3.674779    -1.720413    -7.518383    2.374711    -0.393828    11.484031    4.526773    -4.224586    6.333199    -5.025714    -4.469121    8.236858    3.834269    -16.988419    -25.346695    5.288224    -51.242138    -22.801100    -18.568825    -74.668823    -20.402061    -30.228468    -26.887148    -6.612900    5.305211    -7.489102    19.777670    25.668207    10.398590    15.722888    12.966113    4.590158    2.878542    12.952720    24.322157    9.290614    -0.182793    -0.672814    -11.194408    25.354002    -17.130274    7.100362    -22.673389    44.058571    0.000000    0.000000    0.000000    -14.941496    -26.562967    -8.617301    11.580475    27.745108    -14.018965    2.143687    12.451574    -13.729731    0.000000    0.000000    0.000000    
32.016048    158.796829    -104.259979    -0.047551    -1.462517    27.109221    -2.254353    -3.675158    -1.754407    -7.497109    2.339936    -0.407385    11.656507    4.505106    -4.178134    6.202976    -4.977771    -4.468551    8.416259    3.676345    -16.987803    -25.655241    4.415677    -51.975716    -22.224117    -19.582043    -75.638817    -20.703478    -30.925224    -27.044565    -6.493180    5.271223    -7.420339    19.692335    25.718189    10.409586    15.635814    12.895575    4.635935    2.915925    12.888069    24.349789    9.278098    -0.174370    -0.679152    -11.192029    25.314751    -17.121458    7.106731    -22.654825    44.108780    0.000000    0.000000    0.000000    -14.927369    -26.587933    -8.615867    11.572516    27.727823    -14.018053    2.142491    12.473883    -13.698598    0.000000    0.000000    0.000000    
